<?xml version="1.0" standalone="no"?>
<!DOCTYPE svg PUBLIC "-//W3C//DTD SVG 20010904//EN"
 "http://www.w3.org/TR/2001/REC-SVG-20010904/DTD/svg10.dtd">
<svg version="1.0" xmlns="http://www.w3.org/2000/svg"
 width="512.000000pt" height="512.000000pt" viewBox="0 0 512.000000 512.000000"
 preserveAspectRatio="xMidYMid meet">

<g transform="translate(0.000000,512.000000) scale(0.100000,-0.100000)"
fill="#000000" stroke="none">
<path d="M487 4966 c-88 -32 -147 -89 -189 -182 -18 -42 -22 -72 -26 -201 -5
-167 2 -203 44 -222 35 -15 48 -14 77 9 25 20 25 22 28 182 4 150 6 166 28
201 12 21 40 46 62 57 38 20 66 20 1619 20 1553 0 1581 0 1619 -20 22 -11 50
-36 62 -57 l24 -38 3 -1807 2 -1807 27 -21 c33 -26 68 -20 101 16 l22 25 -2
1812 -3 1812 -28 57 c-30 62 -83 115 -149 150 l-43 23 -1620 2 c-1345 2 -1626
0 -1658 -11z"/>
<path d="M4277 4390 c-44 -13 -95 -57 -117 -100 -20 -39 -20 -61 -20 -1620 l0
-1581 142 -391 c78 -216 150 -400 160 -410 23 -23 80 -23 101 0 9 10 82 198
162 419 l145 401 -2 932 -3 932 -24 19 c-35 28 -85 25 -110 -7 -21 -26 -21
-33 -21 -760 0 -581 -3 -734 -12 -734 -7 0 -41 13 -76 30 -118 55 -201 168
-222 300 -6 41 -10 403 -10 983 l0 917 160 0 160 0 0 -195 c0 -153 3 -202 15
-224 26 -50 73 -55 116 -11 l30 30 -3 462 c-3 455 -3 464 -25 504 -28 52 -72
90 -121 104 -44 12 -385 12 -425 0z m394 -150 c18 -10 19 -23 19 -185 l0 -175
-200 0 -200 0 0 169 c0 215 -14 201 203 201 90 0 167 -4 178 -10z m-35 -3272
l-23 -63 -121 -3 c-67 -1 -122 -1 -122 1 0 2 -11 31 -24 65 l-25 62 170 0 169
0 -24 -62z"/>
<path d="M314 4128 c-12 -5 -27 -21 -33 -34 -8 -18 -11 -528 -11 -1842 0
-2008 -4 -1887 63 -1981 37 -52 110 -105 165 -121 51 -14 3213 -14 3264 0 55
16 128 69 165 121 50 70 63 138 63 331 0 178 -6 208 -47 227 -34 15 -47 14
-76 -9 l-25 -20 -4 -198 c-3 -224 -10 -247 -86 -290 l-40 -22 -1582 0 -1582 0
-40 22 c-21 12 -49 38 -61 58 l-22 35 -3 1847 -2 1847 -26 20 c-29 23 -48 25
-80 9z"/>
<path d="M1208 4074 c-51 -27 -50 -102 2 -129 25 -13 142 -15 913 -15 620 0
893 3 916 11 70 25 69 111 -3 139 -18 7 -324 10 -914 10 -765 -1 -891 -3 -914
-16z"/>
<path d="M854 3697 c-33 -28 -37 -76 -9 -107 18 -20 28 -20 1285 -20 1257 0
1267 0 1285 20 28 31 24 79 -9 107 l-27 23 -1249 0 -1249 0 -27 -23z"/>
<path d="M775 3135 l-25 -24 0 -300 0 -300 26 -20 c26 -20 38 -21 315 -21 158
0 295 3 304 6 40 16 45 51 45 338 0 291 -3 315 -47 335 -16 7 -121 11 -309 11
l-285 0 -24 -25z m505 -325 l0 -189 -187 2 -188 2 -3 188 -2 187 190 0 190 0
0 -190z"/>
<path d="M1721 3024 c-12 -15 -21 -33 -21 -40 0 -26 23 -62 47 -73 17 -8 271
-11 869 -11 l845 0 24 25 c32 31 33 74 2 103 l-23 22 -861 0 -862 0 -20 -26z"/>
<path d="M1744 2718 c-22 -10 -44 -47 -44 -72 0 -7 9 -25 21 -40 l20 -26 584
0 584 0 20 26 c34 43 26 86 -20 109 -24 13 -115 15 -586 14 -362 0 -565 -4
-579 -11z"/>
<path d="M772 2227 c-22 -23 -22 -29 -22 -320 0 -282 1 -298 20 -317 11 -11
30 -22 42 -25 13 -3 148 -5 301 -3 l279 3 24 28 24 28 0 288 c0 277 -1 289
-21 315 l-20 26 -303 0 -303 0 -21 -23z m508 -317 l0 -190 -190 0 -190 0 0
190 0 190 190 0 190 0 0 -190z"/>
<path d="M1744 2138 c-22 -10 -44 -47 -44 -72 0 -7 9 -25 21 -40 l20 -26 863
0 863 0 21 23 c29 31 28 72 -3 102 l-24 25 -848 -1 c-562 0 -855 -4 -869 -11z"/>
<path d="M1723 1794 c-20 -20 -24 -31 -19 -57 13 -70 -16 -67 623 -67 l574 0
24 25 c30 30 32 64 4 99 l-20 26 -580 0 -580 0 -26 -26z"/>
<path d="M775 1325 l-25 -24 0 -299 0 -299 23 -21 c23 -22 29 -22 319 -22 276
0 297 1 319 19 l24 19 3 288 c3 307 0 333 -44 353 -17 7 -119 11 -310 11
l-285 0 -24 -25z m505 -325 l0 -190 -190 0 -190 0 0 190 0 190 190 0 190 0 0
-190z"/>
<path d="M1723 1214 c-20 -20 -24 -31 -19 -57 3 -18 16 -40 27 -49 20 -17 77
-18 876 -18 l854 0 24 25 c32 31 33 74 2 103 l-23 22 -858 0 -857 0 -26 -26z"/>
<path d="M1729 891 c-35 -36 -37 -61 -5 -98 l24 -28 577 0 577 0 24 28 c37 44
31 88 -17 112 -24 13 -116 15 -589 15 l-562 0 -29 -29z"/>
</g>
</svg>
